<svg width="233" height="49" viewBox="0 0 233 49" fill="none" xmlns="http://www.w3.org/2000/svg">
<path d="M41.135 40.39C40.015 40.39 38.93 40.215 37.88 39.865C36.84 39.515 35.93 39.015 35.15 38.365C34.37 37.715 33.82 36.94 33.5 36.04L35.465 35.305C35.685 35.925 36.085 36.46 36.665 36.91C37.255 37.35 37.94 37.69 38.72 37.93C39.51 38.17 40.315 38.29 41.135 38.29C42.095 38.29 42.99 38.13 43.82 37.81C44.65 37.49 45.32 37.045 45.83 36.475C46.34 35.895 46.595 35.215 46.595 34.435C46.595 33.645 46.33 32.995 45.8 32.485C45.27 31.975 44.585 31.575 43.745 31.285C42.915 30.985 42.045 30.755 41.135 30.595C39.705 30.345 38.42 30.005 37.28 29.575C36.15 29.145 35.255 28.54 34.595 27.76C33.935 26.97 33.605 25.93 33.605 24.64C33.605 23.43 33.955 22.38 34.655 21.49C35.355 20.6 36.275 19.91 37.415 19.42C38.565 18.93 39.805 18.685 41.135 18.685C42.225 18.685 43.29 18.855 44.33 19.195C45.37 19.535 46.285 20.03 47.075 20.68C47.875 21.33 48.45 22.125 48.8 23.065L46.805 23.785C46.585 23.155 46.18 22.62 45.59 22.18C45.01 21.73 44.33 21.39 43.55 21.16C42.77 20.92 41.965 20.8 41.135 20.8C40.185 20.79 39.295 20.95 38.465 21.28C37.645 21.6 36.98 22.05 36.47 22.63C35.96 23.2 35.705 23.87 35.705 24.64C35.705 25.54 35.94 26.235 36.41 26.725C36.89 27.205 37.54 27.565 38.36 27.805C39.18 28.045 40.105 28.26 41.135 28.45C42.475 28.68 43.72 29.04 44.87 29.53C46.02 30.01 46.945 30.655 47.645 31.465C48.345 32.265 48.695 33.255 48.695 34.435C48.695 35.635 48.345 36.685 47.645 37.585C46.945 38.475 46.02 39.165 44.87 39.655C43.73 40.145 42.485 40.39 41.135 40.39ZM67.2045 19V21.1H60.0045V40H57.9045V21.1H50.7195V19H67.2045ZM74.6436 19H77.2536L84.9036 40H82.6686L81.0336 35.5H70.8786L69.2436 40H67.0086L74.6436 19ZM71.6436 33.4H80.2536L75.9486 21.58L71.6436 33.4ZM87.7063 40V19H94.8313C95.9513 19 96.9613 19.275 97.8613 19.825C98.7613 20.365 99.4763 21.1 100.006 22.03C100.536 22.95 100.801 23.985 100.801 25.135C100.801 26.165 100.591 27.1 100.171 27.94C99.7513 28.78 99.1763 29.475 98.4463 30.025C97.7263 30.575 96.9113 30.94 96.0013 31.12L101.131 40H98.7013L93.6463 31.285H89.8063V40H87.7063ZM89.8063 29.185H94.6513C95.3913 29.185 96.0663 29.005 96.6763 28.645C97.2963 28.275 97.7863 27.78 98.1463 27.16C98.5163 26.53 98.7013 25.82 98.7013 25.03C98.7013 24.24 98.5163 23.535 98.1463 22.915C97.7863 22.285 97.2963 21.79 96.6763 21.43C96.0663 21.06 95.3913 20.875 94.6513 20.875H89.8063V29.185ZM120.027 19V21.1H112.827V40H110.727V21.1H103.542V19H120.027Z" fill="#B94A89"/>
<path d="M129.715 40.378C128.623 40.308 127.566 40.091 126.544 39.727C125.536 39.349 124.64 38.838 123.856 38.194C123.072 37.55 122.47 36.78 122.05 35.884L126.376 34.036C126.544 34.316 126.817 34.617 127.195 34.939C127.573 35.247 128.021 35.506 128.539 35.716C129.071 35.926 129.652 36.031 130.282 36.031C130.814 36.031 131.318 35.961 131.794 35.821C132.284 35.667 132.676 35.436 132.97 35.128C133.278 34.82 133.432 34.421 133.432 33.931C133.432 33.413 133.25 33.014 132.886 32.734C132.536 32.44 132.088 32.223 131.542 32.083C131.01 31.929 130.492 31.789 129.988 31.663C128.658 31.397 127.419 30.984 126.271 30.424C125.137 29.864 124.22 29.143 123.52 28.261C122.834 27.365 122.491 26.287 122.491 25.027C122.491 23.641 122.855 22.444 123.583 21.436C124.325 20.428 125.284 19.651 126.46 19.105C127.65 18.559 128.931 18.286 130.303 18.286C131.969 18.286 133.495 18.636 134.881 19.336C136.281 20.022 137.387 20.995 138.199 22.255L134.146 24.649C133.95 24.313 133.677 24.005 133.327 23.725C132.977 23.431 132.578 23.193 132.13 23.011C131.682 22.815 131.213 22.703 130.723 22.675C130.093 22.647 129.519 22.703 129.001 22.843C128.483 22.983 128.063 23.221 127.741 23.557C127.433 23.893 127.279 24.341 127.279 24.901C127.279 25.433 127.489 25.832 127.909 26.098C128.329 26.35 128.833 26.546 129.421 26.686C130.023 26.826 130.597 26.98 131.143 27.148C132.375 27.554 133.53 28.051 134.608 28.639C135.7 29.227 136.575 29.948 137.233 30.802C137.891 31.656 138.206 32.678 138.178 33.868C138.178 35.226 137.772 36.416 136.96 37.438C136.148 38.446 135.098 39.216 133.81 39.748C132.536 40.28 131.171 40.49 129.715 40.378ZM141.772 40V19H146.896V20.869C147.61 20.113 148.464 19.518 149.458 19.084C150.452 18.636 151.523 18.412 152.671 18.412C154.127 18.412 155.464 18.755 156.682 19.441C157.914 20.127 158.894 21.044 159.622 22.192C160.364 21.044 161.344 20.127 162.562 19.441C163.78 18.755 165.117 18.412 166.573 18.412C168.113 18.412 169.506 18.79 170.752 19.546C172.012 20.288 173.013 21.289 173.755 22.549C174.511 23.795 174.889 25.188 174.889 26.728V40H169.765V28.093C169.765 27.281 169.562 26.539 169.156 25.867C168.764 25.181 168.232 24.635 167.56 24.229C166.902 23.809 166.16 23.599 165.334 23.599C164.508 23.599 163.759 23.802 163.087 24.208C162.429 24.6 161.897 25.132 161.491 25.804C161.085 26.476 160.882 27.239 160.882 28.093V40H155.758V28.093C155.758 27.239 155.562 26.476 155.17 25.804C154.778 25.132 154.246 24.6 153.574 24.208C152.902 23.802 152.153 23.599 151.327 23.599C150.515 23.599 149.773 23.809 149.101 24.229C148.429 24.635 147.89 25.181 147.484 25.867C147.092 26.539 146.896 27.281 146.896 28.093V40H141.772ZM194.52 19H199.644V40H194.52L194.289 37.396C193.715 38.334 192.952 39.097 192 39.685C191.062 40.259 189.949 40.546 188.661 40.546C187.107 40.546 185.651 40.252 184.293 39.664C182.935 39.076 181.738 38.264 180.702 37.228C179.68 36.192 178.875 34.995 178.287 33.637C177.713 32.279 177.426 30.823 177.426 29.269C177.426 27.771 177.699 26.364 178.245 25.048C178.805 23.732 179.582 22.577 180.576 21.583C181.57 20.589 182.718 19.812 184.02 19.252C185.322 18.692 186.722 18.412 188.22 18.412C189.606 18.412 190.845 18.72 191.937 19.336C193.043 19.952 193.981 20.736 194.751 21.688L194.52 19ZM188.535 35.611C189.627 35.611 190.593 35.338 191.433 34.792C192.273 34.246 192.931 33.511 193.407 32.587C193.883 31.649 194.121 30.62 194.121 29.5C194.121 28.366 193.883 27.337 193.407 26.413C192.931 25.475 192.266 24.733 191.412 24.187C190.572 23.641 189.613 23.368 188.535 23.368C187.457 23.368 186.47 23.648 185.574 24.208C184.692 24.754 183.985 25.489 183.453 26.413C182.935 27.337 182.676 28.366 182.676 29.5C182.676 30.634 182.942 31.663 183.474 32.587C184.006 33.511 184.713 34.246 185.595 34.792C186.491 35.338 187.471 35.611 188.535 35.611ZM203.85 40L203.829 19H208.953L208.974 20.869C209.688 20.113 210.542 19.518 211.536 19.084C212.53 18.636 213.601 18.412 214.749 18.412C215.519 18.412 216.289 18.524 217.059 18.748L215.043 23.914C214.511 23.704 213.979 23.599 213.447 23.599C212.621 23.599 211.865 23.802 211.179 24.208C210.507 24.6 209.968 25.139 209.562 25.825C209.17 26.497 208.974 27.246 208.974 28.072V40H203.85ZM231.245 24.124H227.171V40H222.047V24.124H218.939V19H222.047V12.406H227.171V19H231.245V24.124Z" fill="#3A3A3A" fill-opacity="0.8"/>
<g clip-path="url(#clip0_269_2)">
<path d="M13.9711 44.0405C13.9711 44.0405 26.8288 38.2095 26.8288 29.4631V19.2589L13.9711 14.8857L5.99609 19.2589V29.4631C5.99609 38.2095 13.9711 44.0405 13.9711 44.0405Z" fill="#7E7E7E" fill-opacity="0.25"/>
<path d="M13.8083 44.0405C13.8083 44.0405 26.666 38.2095 26.666 29.4631V19.2589L13.8083 14.8857V44.0405Z" fill="#9F9F9F" fill-opacity="0.5"/>
<path d="M16.2496 42.3429C16.2496 42.3429 18.691 40.431 21.1323 37.8819V18.1261L16.2496 16.2143V42.3429Z" fill="#984A76"/>
<path d="M23.5737 37.25C23.5737 37.25 25.7709 35.7 26.666 29.4631V19.2589L23.5737 17.9857V37.25Z" fill="white" fill-opacity="0.5"/>
<path d="M13.9711 44.0405C13.9711 44.0405 26.8287 38.2095 26.8287 29.4631V19.2589L13.9711 14.8857L1.1134 19.2589V29.4631C1.1134 38.2095 13.9711 44.0405 13.9711 44.0405Z" stroke="#454242" stroke-width="2" stroke-linecap="round" stroke-linejoin="round"/>
</g>
<defs>
<clipPath id="clip0_269_2">
<rect width="28" height="31" fill="white" transform="translate(0 14)"/>
</clipPath>
</defs>
</svg>
